<svg id="c78fc39b-5146-4fa7-ba35-3e99ceacfda4" data-name="logo" xmlns="http://www.w3.org/2000/svg" viewBox="0 0 92 92"><title>logo</title><g id="fa1c6dd3-fece-4309-94cc-ca33e197a6d0" data-name="Scene-1"><g id="bde3cd92-4984-4f4e-b1d8-ce9e2a9ff67d" data-name="logo bg"><path d="M85,7.35A24,24,0,0,0,67.3,0h-42A24.21,24.21,0,0,0,7.6,7.35,24.21,24.21,0,0,0,.3,25V67A24,24,0,0,0,7.6,84.7,24.13,24.13,0,0,0,25.3,92h42a25.1,25.1,0,0,0,25-25V25A24.13,24.13,0,0,0,85,7.35Z" transform="translate(-0.3 -0.05)" fill="#d6e6ea"/></g><g id="6cb64e8c-960b-4fc5-8346-1050a0cd613d" data-name="s char"><text transform="translate(10.7 60.95)" font-size="48" fill="#845cbc" font-family="MyriadPro-Regular, Myriad Pro" letter-spacing="-0.11em">P<tspan x="20.5" y="0" letter-spacing="-0.08em">oH</tspan></text></g></g></svg>